Coordinates
version=1
nRows=24
nColumns=38
inDegrees=no

Units are S.I. units (second, meters, Newtons, ...)
If the header above contains a line with 'inDegrees', this indicates whether rotational values are in degrees (yes) or radians (no).

endheader
time	pelvis_tilt	pelvis_list	pelvis_rotation	pelvis_tx	pelvis_ty	pelvis_tz	hip_flexion_r	hip_adduction_r	hip_rotation_r	knee_angle_r	ankle_angle_r	subtalar_angle_r	mtp_angle_r	hip_flexion_l	hip_adduction_l	hip_rotation_l	knee_angle_l	ankle_angle_l	subtalar_angle_l	mtp_angle_l	lumbar_extension	lumbar_bending	lumbar_rotation	arm_flex_r	arm_add_r	arm_rot_r	elbow_flex_r	pro_sup_r	wrist_flex_r	wrist_dev_r	arm_flex_l	arm_add_l	arm_rot_l	elbow_flex_l	pro_sup_l	wrist_flex_l	wrist_dev_l
0.92	2.48895	1.34969	-0.916562	0.837946	0.634273	0.965221	0.381413	0.0719025	-0.284205	0.354408	0.249176	0	0	-0.205917	-0.0826178	-0.202628	0.334163	0.324996	0	0	-0.460577	0.183283	0.0475353	0.50782	-0.458931	0.234123	1.08963	0.831346	0	0	0.475088	-0.42212	0.281819	1.03972	0.69598	0	0
0.93	2.4891	1.3491	-0.9113	0.837837	0.645565	0.96349	0.385563	0.0730817	-0.292172	0.327113	0.244962	0	0	-0.219598	-0.0837787	-0.199579	0.333542	0.335199	0	0	-0.459748	0.186893	0.0420261	0.508691	-0.457667	0.233329	1.09084	0.832318	0	0	0.47467	-0.422087	0.278948	1.04063	0.696456	0	0
0.94	2.49085	1.34879	-0.907813	0.837791	0.657069	0.961696	0.387606	0.0745933	-0.298213	0.298035	0.240247	0	0	-0.233734	-0.0845911	-0.196847	0.332383	0.344698	0	0	-0.458667	0.189906	0.0369556	0.508482	-0.456324	0.23123	1.09272	0.834596	0	0	0.474536	-0.421995	0.276985	1.04154	0.698457	0	0
0.95	2.4947	1.34895	-0.907033	0.837832	0.668763	0.959862	0.38747	0.0764602	-0.301566	0.267025	0.234849	0	0	-0.248483	-0.0847568	-0.194907	0.330568	0.353243	0	0	-0.457543	0.191994	0.0327761	0.507243	-0.454709	0.226853	1.09525	0.837753	0	0	0.474978	-0.421431	0.275708	1.04192	0.702004	0	0
0.96	2.50107	1.34967	-0.909193	0.837961	0.680655	0.957973	0.385265	0.0784117	-0.30214	0.234636	0.229718	0	0	-0.263393	-0.0842263	-0.193393	0.328892	0.360876	0	0	-0.456416	0.193028	0.0288316	0.505466	-0.452451	0.221345	1.09775	0.841898	0	0	0.475159	-0.420277	0.273452	1.04176	0.70506	0	0
0.97	2.50875	1.35062	-0.912625	0.838124	0.692756	0.956022	0.380807	0.0805462	-0.300555	0.201127	0.224686	0	0	-0.277892	-0.0835928	-0.19202	0.328422	0.368058	0	0	-0.455363	0.193746	0.0239378	0.504107	-0.449132	0.215943	1.09938	0.847062	0	0	0.473439	-0.418908	0.267314	1.04272	0.708147	0	0
0.98	2.51622	1.35158	-0.915633	0.838347	0.705083	0.954041	0.374393	0.0830181	-0.297129	0.167409	0.218786	0	0	-0.291755	-0.0836231	-0.190827	0.329948	0.374934	0	0	-0.454363	0.194567	0.0182547	0.503034	-0.445137	0.210449	1.10045	0.851409	0	0	0.469909	-0.41768	0.258105	1.04516	0.711611	0	0
0.99	2.52319	1.35269	-0.918298	0.838631	0.717609	0.952033	0.367197	0.0855261	-0.292977	0.136552	0.212366	0	0	-0.304794	-0.0839974	-0.189855	0.333244	0.381134	0	0	-0.453255	0.195453	0.0125339	0.502119	-0.441119	0.205047	1.10138	0.854733	0	0	0.46567	-0.416828	0.248754	1.04833	0.715644	0	0
1	2.52899	1.35377	-0.920087	0.838986	0.730335	0.950018	0.359751	0.0881587	-0.289006	0.110614	0.206286	0	0	-0.316775	-0.0850408	-0.188743	0.339027	0.386681	0	0	-0.451874	0.196648	0.00747702	0.500963	-0.43754	0.200146	1.10224	0.85885	0	0	0.462064	-0.416234	0.241704	1.0505	0.719712	0	0
1.01	2.53516	1.35501	-0.923202	0.839417	0.743246	0.948027	0.352766	0.0903762	-0.284542	0.0920513	0.202085	0	0	-0.327472	-0.0864907	-0.188627	0.348345	0.391666	0	0	-0.450365	0.197592	0.00413728	0.499348	-0.435194	0.195931	1.10335	0.86309	0	0	0.460001	-0.415453	0.237865	1.0509	0.722987	0	0
1.02	2.54119	1.3564	-0.926854	0.839961	0.756393	0.946071	0.347428	0.091779	-0.280795	0.0839902	0.201062	0	0	-0.336263	-0.0885858	-0.189269	0.362103	0.396052	0	0	-0.448413	0.198351	0.00232372	0.497149	-0.433842	0.19226	1.10428	0.866429	0	0	0.459355	-0.414389	0.237173	1.04903	0.724808	0	0
1.03	2.54669	1.35812	-0.930719	0.840613	0.76982	0.944123	0.344919	0.0922001	-0.27997	0.0893684	0.204092	0	0	-0.342824	-0.0911337	-0.189854	0.380589	0.399562	0	0	-0.445801	0.198895	0.00140666	0.494836	-0.432964	0.189796	1.10449	0.867839	0	0	0.458738	-0.413055	0.237461	1.04607	0.724868	0	0
1.04	2.55204	1.36005	-0.934639	0.841242	0.78352	0.942171	0.343743	0.0917571	-0.279035	0.105232	0.207876	0	0	-0.347046	-0.0939528	-0.189108	0.404044	0.401908	0	0	-0.442651	0.199611	0.000300199	0.49305	-0.432497	0.189293	1.10385	0.868897	0	0	0.456815	-0.41142	0.236601	1.04354	0.724877	0	0
1.05	2.55668	1.36235	-0.937137	0.841771	0.797567	0.940134	0.343977	0.0899871	-0.278576	0.131488	0.213089	0	0	-0.348174	-0.0977052	-0.188123	0.433261	0.403206	0	0	-0.438345	0.200801	-0.00212186	0.491463	-0.432203	0.190605	1.10258	0.869972	0	0	0.452823	-0.409679	0.234052	1.04219	0.725352	0	0
1.06	2.56197	1.36454	-0.938919	0.84217	0.812031	0.938022	0.343343	0.0874031	-0.276735	0.163824	0.220473	0	0	-0.346656	-0.102781	-0.186899	0.468795	0.402925	0	0	-0.433227	0.202598	-0.00601836	0.489151	-0.43251	0.192996	1.10163	0.870747	0	0	0.447066	-0.407852	0.230199	1.04202	0.726544	0	0
1.07	2.56969	1.36571	-0.941458	0.842385	0.826872	0.9359	0.339489	0.0848758	-0.274078	0.195422	0.232113	0	0	-0.343083	-0.10964	-0.185858	0.511105	0.400415	0	0	-0.428117	0.205409	-0.0111618	0.486069	-0.433738	0.195713	1.10125	0.870341	0	0	0.440686	-0.40594	0.226319	1.04212	0.728365	0	0
1.08	2.5786	1.36479	-0.944134	0.842551	0.841875	0.933878	0.331411	0.0839589	-0.274723	0.218301	0.24133	0	0	-0.337541	-0.119287	-0.18592	0.560499	0.393932	0	0	-0.424571	0.209693	-0.0155921	0.481718	-0.43629	0.197088	1.10258	0.868788	0	0	0.435841	-0.403957	0.225034	1.04139	0.730054	0	0
1.09	2.57796	1.36196	-0.93801	0.843033	0.856586	0.93203	0.322181	0.0866042	-0.280805	0.226885	0.225513	0	0	-0.327362	-0.133632	-0.188528	0.618388	0.381778	0	0	-0.423063	0.216267	-0.0162672	0.476324	-0.440299	0.196418	1.10653	0.865505	0	0	0.433892	-0.401835	0.227291	1.04004	0.730886	0	0
1.1	2.55584	1.35862	-0.915547	0.844268	0.870524	0.930515	0.316907	0.0948598	-0.281593	0.225056	0.163825	0	0	-0.309676	-0.152166	-0.193692	0.683977	0.360256	0	0	-0.423368	0.224733	-0.009602	0.47223	-0.444967	0.194832	1.11174	0.857949	0	0	0.433794	-0.399235	0.230555	1.03995	0.728394	0	0
1.11	2.50597	1.35731	-0.872841	0.846063	0.883514	0.92943	0.326208	0.105168	-0.278414	0.240492	0.0929487	0	0	-0.281696	-0.172121	-0.199055	0.755539	0.327618	0	0	-0.423145	0.234344	0.00373248	0.472721	-0.449673	0.196044	1.1153	0.85157	0	0	0.432346	-0.395673	0.229579	1.04259	0.725782	0	0
1.12	2.44974	1.35514	-0.826197	0.847666	0.896025	0.92906	0.346562	0.11155	-0.28359	0.286817	0.055049	0	0	-0.24995	-0.191475	-0.199578	0.828984	0.284594	0	0	-0.424765	0.244956	0.0170813	0.478673	-0.454587	0.20345	1.11609	0.848687	0	0	0.42916	-0.392881	0.224983	1.04768	0.725724	0	0
1.13	2.4121	1.3527	-0.795279	0.84854	0.908583	0.929195	0.369004	0.11	-0.29478	0.351727	0.0478664	0	0	-0.218681	-0.205461	-0.191185	0.899938	0.23489	0	0	-0.427855	0.253825	0.0246586	0.486808	-0.45968	0.21609	1.11525	0.845002	0	0	0.425978	-0.392504	0.22149	1.05235	0.726086	0	0
1.14	2.40516	1.34747	-0.788033	0.84855	0.921268	0.930002	0.37871	0.104872	-0.303237	0.406371	0.0397849	0	0	-0.192092	-0.2141	-0.171298	0.966656	0.183485	0	0	-0.435642	0.261981	0.0244527	0.494574	-0.463706	0.227569	1.11426	0.840899	0	0	0.424946	-0.395297	0.223539	1.05517	0.725018	0	0
1.15	2.41997	1.3422	-0.796887	0.848292	0.933868	0.931139	0.378157	0.0972956	-0.311849	0.445648	0.019315	0	0	-0.167215	-0.217056	-0.143129	1.02903	0.13509	0	0	-0.445388	0.267397	0.0185809	0.499825	-0.465956	0.234936	1.11494	0.835483	0	0	0.426243	-0.401092	0.23047	1.05711	0.720447	0	0
